<svg xmlns="http://www.w3.org/2000/svg" xmlns:xlink="http://www.w3.org/1999/xlink" width="500" zoomAndPan="magnify" viewBox="0 0 375 374.999991" height="500" preserveAspectRatio="xMidYMid meet" version="1.0"><defs><g/><clipPath id="f521bee882"><path d="M 61 141 L 367 141 L 367 335 L 61 335 Z M 61 141 " clip-rule="nonzero"/></clipPath><clipPath id="c5e74a629d"><path d="M 61.117188 176.226562 L 347.816406 141.882812 L 366.820312 300.496094 L 80.117188 334.84375 Z M 61.117188 176.226562 " clip-rule="nonzero"/></clipPath><clipPath id="3a8ee58401"><path d="M 61.117188 176.226562 L 347.816406 141.882812 L 366.820312 300.496094 L 80.117188 334.84375 Z M 61.117188 176.226562 " clip-rule="nonzero"/></clipPath><clipPath id="beb3b4a5fd"><path d="M 9.246094 37.5 L 297.996094 37.5 L 297.996094 197.25 L 9.246094 197.25 Z M 9.246094 37.5 " clip-rule="nonzero"/></clipPath></defs><g clip-path="url(#f521bee882)"><g clip-path="url(#c5e74a629d)"><g clip-path="url(#3a8ee58401)"><path fill="#5271ff" d="M 228.683594 156.152344 C 230.277344 169.476562 220.75 181.558594 207.386719 183.160156 C 194.023438 184.761719 181.910156 175.269531 180.316406 161.949219 L 61.148438 176.222656 L 80.152344 334.839844 L 199.285156 320.566406 C 197.6875 307.242188 207.214844 295.160156 220.582031 293.5625 C 233.945312 291.960938 246.054688 301.449219 247.652344 314.773438 L 366.785156 300.5 L 347.785156 141.886719 Z M 228.683594 156.152344 " fill-opacity="1" fill-rule="nonzero"/></g></g></g><g clip-path="url(#beb3b4a5fd)"><path fill="#5271ff" d="M 178.007812 37.5 C 178.007812 50.917969 167.113281 61.78125 153.652344 61.78125 C 140.191406 61.78125 129.296875 50.917969 129.296875 37.5 L 9.277344 37.5 L 9.277344 197.25 L 129.265625 197.25 C 129.265625 183.832031 140.160156 172.96875 153.621094 172.96875 C 167.082031 172.96875 177.976562 183.832031 177.976562 197.25 L 297.960938 197.25 L 297.960938 37.5 Z M 178.007812 37.5 " fill-opacity="1" fill-rule="nonzero"/></g><g fill="#ffffff" fill-opacity="1"><g transform="translate(142.192766, 270.507628)"><g><path d="M 24 -2.875 L 22.953125 -11.578125 L 1.109375 -8.96875 L 0.546875 -13.65625 L 16.015625 -46.875 L 23.765625 -47.796875 L 27.515625 -16.5625 L 34.125 -17.359375 L 34.640625 -12.984375 L 28.03125 -12.1875 L 29.078125 -3.484375 Z M 5.359375 -13.90625 L 22.4375 -15.953125 L 19.1875 -43.0625 L 18.921875 -43.03125 Z M 5.359375 -13.90625 "/></g></g></g><g fill="#ffffff" fill-opacity="1"><g transform="translate(180.281431, 265.944812)"><g><path d="M 16.375 -1.96875 L 14.296875 -19.359375 L -4.21875 -44.4375 L 1.859375 -45.171875 L 9.609375 -34.375 L 16.1875 -24.9375 L 16.453125 -24.96875 L 20.78125 -35.703125 L 25.734375 -48.03125 L 31.703125 -48.75 L 19.625 -19.984375 L 21.703125 -2.59375 Z M 16.375 -1.96875 "/></g></g></g><g fill="#ffffff" fill-opacity="1"><g transform="translate(218.370096, 261.381995)"><g><path d="M 19.140625 -1.515625 C 16.429688 -1.191406 14.039062 -1.429688 11.96875 -2.234375 C 9.894531 -3.035156 8.109375 -4.332031 6.609375 -6.125 C 5.109375 -7.925781 3.890625 -10.207031 2.953125 -12.96875 C 2.015625 -15.726562 1.328125 -18.929688 0.890625 -22.578125 C 0.460938 -26.171875 0.375 -29.429688 0.625 -32.359375 C 0.882812 -35.285156 1.53125 -37.800781 2.5625 -39.90625 C 3.59375 -42.007812 5.019531 -43.691406 6.84375 -44.953125 C 8.664062 -46.222656 10.929688 -47.019531 13.640625 -47.34375 C 16.335938 -47.664062 18.722656 -47.425781 20.796875 -46.625 C 22.878906 -45.832031 24.671875 -44.535156 26.171875 -42.734375 C 27.671875 -40.929688 28.890625 -38.640625 29.828125 -35.859375 C 30.765625 -33.078125 31.445312 -29.890625 31.875 -26.296875 C 32.3125 -22.648438 32.398438 -19.375 32.140625 -16.46875 C 31.890625 -13.5625 31.25 -11.054688 30.21875 -8.953125 C 29.1875 -6.859375 27.753906 -5.175781 25.921875 -3.90625 C 24.097656 -2.632812 21.835938 -1.835938 19.140625 -1.515625 Z M 18.578125 -6.15625 C 20.347656 -6.363281 21.804688 -6.890625 22.953125 -7.734375 C 24.097656 -8.585938 24.992188 -9.695312 25.640625 -11.0625 C 26.296875 -12.425781 26.695312 -14.023438 26.84375 -15.859375 C 27 -17.703125 26.941406 -19.75 26.671875 -22 L 25.796875 -29.21875 C 25.535156 -31.425781 25.113281 -33.414062 24.53125 -35.1875 C 23.945312 -36.96875 23.175781 -38.445312 22.21875 -39.625 C 21.269531 -40.800781 20.140625 -41.660156 18.828125 -42.203125 C 17.515625 -42.753906 15.972656 -42.925781 14.203125 -42.71875 C 12.421875 -42.507812 10.957031 -41.976562 9.8125 -41.125 C 8.664062 -40.28125 7.765625 -39.175781 7.109375 -37.8125 C 6.460938 -36.445312 6.066406 -34.832031 5.921875 -32.96875 C 5.785156 -31.113281 5.847656 -29.082031 6.109375 -26.875 L 6.984375 -19.65625 C 7.253906 -17.40625 7.675781 -15.398438 8.25 -13.640625 C 8.820312 -11.890625 9.582031 -10.425781 10.53125 -9.25 C 11.488281 -8.070312 12.625 -7.207031 13.9375 -6.65625 C 15.25 -6.113281 16.796875 -5.945312 18.578125 -6.15625 Z M 18.578125 -6.15625 "/></g></g></g><g fill="#ffffff" fill-opacity="1"><g transform="translate(256.458761, 256.819179)"><g><path d="M 5.09375 -45.5625 L 8.28125 -18.96875 C 8.539062 -16.800781 8.835938 -14.878906 9.171875 -13.203125 C 9.503906 -11.535156 10.015625 -10.125 10.703125 -8.96875 C 11.398438 -7.820312 12.367188 -7.003906 13.609375 -6.515625 C 14.847656 -6.023438 16.503906 -5.90625 18.578125 -6.15625 C 20.648438 -6.40625 22.226562 -6.914062 23.3125 -7.6875 C 24.40625 -8.457031 25.15625 -9.476562 25.5625 -10.75 C 25.96875 -12.03125 26.128906 -13.519531 26.046875 -15.21875 C 25.972656 -16.925781 25.804688 -18.863281 25.546875 -21.03125 L 22.359375 -47.625 L 27.703125 -48.265625 L 30.734375 -22.9375 C 31.128906 -19.632812 31.3125 -16.738281 31.28125 -14.25 C 31.257812 -11.757812 30.851562 -9.625 30.0625 -7.84375 C 29.269531 -6.070312 28 -4.664062 26.25 -3.625 C 24.507812 -2.582031 22.140625 -1.878906 19.140625 -1.515625 C 16.128906 -1.148438 13.65625 -1.269531 11.71875 -1.875 C 9.78125 -2.476562 8.210938 -3.546875 7.015625 -5.078125 C 5.828125 -6.617188 4.925781 -8.597656 4.3125 -11.015625 C 3.695312 -13.429688 3.191406 -16.289062 2.796875 -19.59375 L -0.234375 -44.921875 Z M 5.09375 -45.5625 "/></g></g></g><g fill="#ffffff" fill-opacity="1"><g transform="translate(57.15851, 140.75465)"><g><path d="M 5.75 0 L 5.75 -44.625 L 33.25 -44.625 L 33.25 -39.953125 L 11.125 -39.953125 L 11.125 -24.9375 L 32.484375 -24.9375 L 32.484375 -20.265625 L 11.125 -20.265625 L 11.125 -4.671875 L 33.25 -4.671875 L 33.25 0 Z M 5.75 0 "/></g></g></g><g fill="#ffffff" fill-opacity="1"><g transform="translate(95.519499, 140.75465)"><g><path d="M 15.53125 0 L 2.296875 -44.625 L 7.984375 -44.625 L 14.328125 -22.3125 L 19.125 -5.4375 L 19.4375 -5.4375 L 24.234375 -22.3125 L 30.5625 -44.625 L 36.0625 -44.625 L 22.828125 0 Z M 15.53125 0 "/></g></g></g><g fill="#ffffff" fill-opacity="1"><g transform="translate(133.880487, 140.75465)"><g><path d="M 5.75 0 L 5.75 -44.625 L 33.25 -44.625 L 33.25 -39.953125 L 11.125 -39.953125 L 11.125 -24.9375 L 32.484375 -24.9375 L 32.484375 -20.265625 L 11.125 -20.265625 L 11.125 -4.671875 L 33.25 -4.671875 L 33.25 0 Z M 5.75 0 "/></g></g></g><g fill="#ffffff" fill-opacity="1"><g transform="translate(172.241476, 140.75465)"><g><path d="M 10.421875 -37.78125 L 9.96875 -37.78125 L 9.96875 0 L 5.109375 0 L 5.109375 -44.625 L 12.71875 -44.625 L 27.9375 -7.21875 L 28.390625 -7.21875 L 28.390625 -44.625 L 33.25 -44.625 L 33.25 0 L 25.640625 0 Z M 10.421875 -37.78125 "/></g></g></g><g fill="#ffffff" fill-opacity="1"><g transform="translate(210.602464, 140.75465)"><g><path d="M 21.859375 -39.953125 L 21.859375 0 L 16.5 0 L 16.5 -39.953125 L 1.59375 -39.953125 L 1.59375 -44.625 L 36.765625 -44.625 L 36.765625 -39.953125 Z M 21.859375 -39.953125 "/></g></g></g></svg>